<svg width="51" height="15" viewBox="0 0 51 15" fill="none" xmlns="http://www.w3.org/2000/svg">
<path opacity="0.2" d="M10.9609 1C11.0599 1 11.1484 1.03125 11.2266 1.09375C11.3047 1.15625 11.3438 1.27604 11.3438 1.45312V11.6406C11.3438 12.026 11.1615 12.2188 10.7969 12.2188H8.08594C7.91406 12.2188 7.77083 12.1849 7.65625 12.1172C7.54688 12.0495 7.44792 11.9714 7.35938 11.8828L3.35938 7.70312C3.40625 8.38021 3.45312 9.0026 3.5 9.57031C3.51562 9.8151 3.53385 10.0573 3.55469 10.2969C3.57552 10.5365 3.59375 10.7604 3.60938 10.9688C3.625 11.1771 3.63802 11.3594 3.64844 11.5156C3.66406 11.6719 3.67448 11.7839 3.67969 11.8516C3.6901 11.9401 3.67448 12.0234 3.63281 12.1016C3.59635 12.1797 3.50781 12.2188 3.36719 12.2188H2.38281C2.28906 12.2188 2.20052 12.1901 2.11719 12.1328C2.03906 12.0703 2 11.9505 2 11.7734V1.57812C2 1.19271 2.21354 1 2.64062 1H5.28125C5.47917 1 5.64323 1.04167 5.77344 1.125C5.90885 1.20833 6.04427 1.31771 6.17969 1.45312L9.98438 5.22656C9.93229 4.60677 9.88542 4.03385 9.84375 3.50781C9.82292 3.28385 9.80208 3.0599 9.78125 2.83594C9.76562 2.61198 9.75 2.40365 9.73438 2.21094C9.71875 2.01302 9.70312 1.84115 9.6875 1.69531C9.67708 1.54948 9.66927 1.4401 9.66406 1.36719C9.65365 1.28385 9.66927 1.20312 9.71094 1.125C9.75781 1.04167 9.86198 1 10.0234 1H10.9609Z" fill="#2AB7D6"/>
<path opacity="0.2" d="M16.4531 2.14062C16.1146 2.21354 15.8021 2.27865 15.5156 2.33594C15.3906 2.36198 15.2656 2.38542 15.1406 2.40625C15.0208 2.42708 14.9062 2.44792 14.7969 2.46875C14.6875 2.48438 14.5885 2.4974 14.5 2.50781C14.4167 2.51823 14.3542 2.52344 14.3125 2.52344C14.224 2.52344 14.1484 2.50781 14.0859 2.47656C14.0286 2.4401 14 2.36979 14 2.26562V1.39062C14 1.29167 14.0417 1.20312 14.125 1.125C14.2083 1.04167 14.3385 1 14.5156 1H24.2109C24.388 1 24.5182 1.04167 24.6016 1.125C24.6849 1.20312 24.7266 1.29167 24.7266 1.39062V2.26562C24.7266 2.36979 24.6953 2.4401 24.6328 2.47656C24.5755 2.50781 24.5026 2.52344 24.4141 2.52344C24.3672 2.52344 24.3021 2.51823 24.2188 2.50781C24.1354 2.4974 24.0391 2.48438 23.9297 2.46875C23.8203 2.44792 23.7031 2.42708 23.5781 2.40625C23.4583 2.38542 23.3359 2.36198 23.2109 2.33594C22.9245 2.27865 22.612 2.21354 22.2734 2.14062V11.1484C22.2734 11.3255 22.2578 11.4818 22.2266 11.6172C22.1953 11.7474 22.1354 11.8594 22.0469 11.9531C21.9635 12.0417 21.8464 12.1094 21.6953 12.1562C21.5443 12.1979 21.3516 12.2188 21.1172 12.2188H17.6328C17.388 12.2188 17.1875 12.1953 17.0312 12.1484C16.8802 12.1016 16.7604 12.0339 16.6719 11.9453C16.5885 11.8568 16.5312 11.7448 16.5 11.6094C16.4688 11.474 16.4531 11.3151 16.4531 11.1328V2.14062Z" fill="#2AB7D6"/>
<path opacity="0.2" d="M31.2031 12.8906C30.7865 12.8906 30.3672 12.8542 29.9453 12.7812C29.5286 12.7083 29.1276 12.5833 28.7422 12.4062C28.3568 12.2292 27.9974 11.9948 27.6641 11.7031C27.3307 11.4062 27.0391 11.0391 26.7891 10.6016C26.5443 10.1589 26.3516 9.63802 26.2109 9.03906C26.0703 8.4349 26 7.73438 26 6.9375C26 6.14583 26.0703 5.44792 26.2109 4.84375C26.3516 4.23958 26.5443 3.71875 26.7891 3.28125C27.0391 2.83854 27.3307 2.47135 27.6641 2.17969C27.9974 1.88802 28.3568 1.65625 28.7422 1.48438C29.1276 1.30729 29.5286 1.18229 29.9453 1.10938C30.3672 1.03646 30.7865 1 31.2031 1C31.6198 1 32.0391 1.03646 32.4609 1.10938C32.8828 1.18229 33.2865 1.30729 33.6719 1.48438C34.0573 1.65625 34.4167 1.88802 34.75 2.17969C35.0833 2.47135 35.3724 2.83854 35.6172 3.28125C35.862 3.71875 36.0547 4.23958 36.1953 4.84375C36.3359 5.44792 36.4062 6.14583 36.4062 6.9375C36.4062 7.72917 36.3359 8.42708 36.1953 9.03125C36.0547 9.63542 35.862 10.1589 35.6172 10.6016C35.3724 11.0391 35.0833 11.4062 34.75 11.7031C34.4167 11.9948 34.0573 12.2292 33.6719 12.4062C33.2865 12.5833 32.8828 12.7083 32.4609 12.7812C32.0391 12.8542 31.6198 12.8906 31.2031 12.8906ZM31.9062 6.9375C31.9062 7.58854 31.9531 8.13281 32.0469 8.57031C32.1458 9.00781 32.276 9.35938 32.4375 9.625C32.599 9.89062 32.7786 10.0807 32.9766 10.1953C33.1797 10.3047 33.388 10.3594 33.6016 10.3594C33.8151 10.3594 34.0234 10.3047 34.2266 10.1953C34.4297 10.0807 34.6094 9.89062 34.7656 9.625C34.9271 9.35938 35.0547 9.00781 35.1484 8.57031C35.2474 8.13281 35.2969 7.58854 35.2969 6.9375C35.2969 6.28646 35.2474 5.74219 35.1484 5.30469C35.0547 4.86719 34.9271 4.51562 34.7656 4.25C34.6094 3.98438 34.4297 3.79688 34.2266 3.6875C34.0234 3.57292 33.8151 3.51562 33.6016 3.51562C33.388 3.51562 33.1797 3.57292 32.9766 3.6875C32.7786 3.79688 32.599 3.98438 32.4375 4.25C32.276 4.51562 32.1458 4.86719 32.0469 5.30469C31.9531 5.74219 31.9062 6.28646 31.9062 6.9375Z" fill="#2AB7D6"/>
<path d="M45.2031 13.8906C44.7865 13.8906 44.3672 13.8542 43.9453 13.7812C43.5286 13.7083 43.1276 13.5833 42.7422 13.4062C42.3568 13.2292 41.9974 12.9948 41.6641 12.7031C41.3307 12.4062 41.0391 12.0391 40.7891 11.6016C40.5443 11.1589 40.3516 10.638 40.2109 10.0391C40.0703 9.4349 40 8.73438 40 7.9375C40 7.14583 40.0703 6.44792 40.2109 5.84375C40.3516 5.23958 40.5443 4.71875 40.7891 4.28125C41.0391 3.83854 41.3307 3.47135 41.6641 3.17969C41.9974 2.88802 42.3568 2.65625 42.7422 2.48438C43.1276 2.30729 43.5286 2.18229 43.9453 2.10938C44.3672 2.03646 44.7865 2 45.2031 2C45.6198 2 46.0391 2.03646 46.4609 2.10938C46.8828 2.18229 47.2865 2.30729 47.6719 2.48438C48.0573 2.65625 48.4167 2.88802 48.75 3.17969C49.0833 3.47135 49.3724 3.83854 49.6172 4.28125C49.862 4.71875 50.0547 5.23958 50.1953 5.84375C50.3359 6.44792 50.4062 7.14583 50.4062 7.9375C50.4062 8.72917 50.3359 9.42708 50.1953 10.0312C50.0547 10.6354 49.862 11.1589 49.6172 11.6016C49.3724 12.0391 49.0833 12.4062 48.75 12.7031C48.4167 12.9948 48.0573 13.2292 47.6719 13.4062C47.2865 13.5833 46.8828 13.7083 46.4609 13.7812C46.0391 13.8542 45.6198 13.8906 45.2031 13.8906ZM45.9062 7.9375C45.9062 8.58854 45.9531 9.13281 46.0469 9.57031C46.1458 10.0078 46.276 10.3594 46.4375 10.625C46.599 10.8906 46.7786 11.0807 46.9766 11.1953C47.1797 11.3047 47.388 11.3594 47.6016 11.3594C47.8151 11.3594 48.0234 11.3047 48.2266 11.1953C48.4297 11.0807 48.6094 10.8906 48.7656 10.625C48.9271 10.3594 49.0547 10.0078 49.1484 9.57031C49.2474 9.13281 49.2969 8.58854 49.2969 7.9375C49.2969 7.28646 49.2474 6.74219 49.1484 6.30469C49.0547 5.86719 48.9271 5.51562 48.7656 5.25C48.6094 4.98438 48.4297 4.79688 48.2266 4.6875C48.0234 4.57292 47.8151 4.51562 47.6016 4.51562C47.388 4.51562 47.1797 4.57292 46.9766 4.6875C46.7786 4.79688 46.599 4.98438 46.4375 5.25C46.276 5.51562 46.1458 5.86719 46.0469 6.30469C45.9531 6.74219 45.9062 7.28646 45.9062 7.9375Z" fill="#E3147F"/>
<path d="M42.8591 14.2738L42.8602 14.2739C43.3094 14.3516 43.7571 14.3906 44.2031 14.3906C44.6491 14.3906 45.0969 14.3516 45.5461 14.2739C46.0103 14.1937 46.4555 14.0559 46.8806 13.8606C47.3117 13.6625 47.7113 13.4014 48.0793 13.0794L48.0793 13.0794L48.0825 13.0765C48.4622 12.7384 48.7849 12.3258 49.0535 11.8457L49.0548 11.8435C49.3262 11.3525 49.5335 10.784 49.6823 10.1446C49.8336 9.49471 49.9062 8.7574 49.9062 7.9375C49.9062 7.1176 49.8336 6.38029 49.6823 5.7304C49.5335 5.09133 49.3263 4.52482 49.0541 4.0382C48.7854 3.55236 48.4616 3.13799 48.0793 2.8034C47.7109 2.4811 47.3104 2.22198 46.8781 2.02888C46.4537 1.83415 46.0093 1.69675 45.5461 1.61668C45.0969 1.53904 44.6491 1.5 44.2031 1.5C43.7571 1.5 43.3094 1.53904 42.8602 1.61668L42.8591 1.61686C42.4009 1.69704 41.9596 1.83451 41.536 2.02887C41.1037 2.22197 40.7032 2.48109 40.3348 2.8034C39.9532 3.13729 39.6274 3.55068 39.3537 4.03539L39.3537 4.03539L39.3527 4.03711C39.0803 4.52397 38.8728 5.09085 38.724 5.7304C38.5727 6.38029 38.5 7.1176 38.5 7.9375C38.5 8.76233 38.5726 9.50231 38.724 10.1524L38.7242 10.1533C38.8731 10.7877 39.0804 11.3532 39.3515 11.8435L39.3515 11.8435L39.3549 11.8496C39.6284 12.3281 39.9529 12.7393 40.3315 13.0765L40.3348 13.0794C40.7027 13.4014 41.1024 13.6625 41.5334 13.8606C41.9578 14.0556 42.4 14.1934 42.8591 14.2738ZM47.3384 10.3653L47.3383 10.3653L47.3347 10.3715C47.2107 10.5822 47.0895 10.6974 46.9849 10.7576C46.8503 10.8292 46.7244 10.8594 46.6016 10.8594C46.4795 10.8594 46.3544 10.8295 46.2209 10.759C46.118 10.6976 45.995 10.5796 45.8648 10.3653C45.7411 10.1619 45.6269 9.86738 45.5352 9.46277C45.4517 9.07177 45.4062 8.56622 45.4062 7.9375C45.4062 7.30878 45.4517 6.80323 45.5352 6.41223C45.6269 6.00762 45.7411 5.71313 45.8648 5.50971C45.9972 5.29187 46.12 5.17948 46.2184 5.12512L46.2184 5.12514L46.2222 5.12299C46.3575 5.04669 46.4819 5.01562 46.6016 5.01562C46.7212 5.01562 46.8457 5.04669 46.9809 5.12299L46.9809 5.12307L46.9895 5.12774C47.0894 5.18154 47.2097 5.29101 47.3347 5.50351L47.3346 5.50354L47.3384 5.50971C47.461 5.71149 47.5728 6.00474 47.6595 6.40945L47.6595 6.40946L47.6608 6.415C47.7488 6.80408 47.7969 7.30851 47.7969 7.9375C47.7969 8.56649 47.7488 9.07092 47.6608 9.46L47.6607 9.46L47.6595 9.46555C47.5728 9.87026 47.461 10.1635 47.3384 10.3653Z" stroke="#E3147F"/>
<path d="M6.39307 12.5423L6.39302 12.5424L6.40189 12.5477C6.61287 12.6723 6.85012 12.7188 7.08594 12.7188H9.79688C10.0636 12.7188 10.3536 12.6469 10.5703 12.4178C10.782 12.1939 10.8438 11.9037 10.8438 11.6406V1.45312C10.8438 1.23565 10.8015 0.913423 10.5389 0.703316C10.3732 0.570741 10.1748 0.5 9.96094 0.5H9.02344C8.81033 0.5 8.45953 0.552075 8.27515 0.879869L8.27504 0.879808L8.26976 0.889706C8.18472 1.04915 8.14613 1.22765 8.16609 1.41347L8.1751 1.53953L8.18877 1.73094L8.1894 1.73977L8.19035 1.74858C8.20534 1.88849 8.22055 2.05552 8.23592 2.25029L8.23601 2.25135C8.25146 2.44192 8.26695 2.64836 8.28246 2.87074L8.28233 2.87075L8.2834 2.88225L8.31465 3.21819L8.34558 3.5507C8.35509 3.67067 8.36486 3.79307 8.3749 3.91789L5.53324 1.09957C5.53299 1.09932 5.53274 1.09907 5.53249 1.09883C5.37618 0.942605 5.21198 0.80823 5.03897 0.70132C4.80951 0.555755 4.54666 0.5 4.28125 0.5H1.64062C1.36197 0.5 1.05962 0.56176 0.825174 0.773335C0.580974 0.99371 0.5 1.29434 0.5 1.57812V11.7734C0.5 11.9909 0.542205 12.3131 0.80484 12.5232L0.81899 12.5346L0.833923 12.5448C0.993714 12.6547 1.17986 12.7188 1.38281 12.7188H2.36719C2.56593 12.7188 2.91388 12.6638 3.07961 12.3262C3.16364 12.1637 3.19666 11.9858 3.17755 11.8047C3.1718 11.7318 3.1614 11.6206 3.14678 11.4741C3.13634 11.318 3.1234 11.137 3.10797 10.9314C3.09218 10.7208 3.07379 10.4948 3.05281 10.2536C3.03231 10.0179 3.01437 9.77951 2.99898 9.53846L2.99907 9.53846L2.9983 9.52917C2.98556 9.37487 2.97282 9.21647 2.96007 9.05397L5.99814 12.2285L5.99805 12.2286L6.00582 12.2364C6.12236 12.3529 6.25181 12.4549 6.39307 12.5423Z" stroke="#2AB7D6"/>
<path d="M13.8791 2.96209L13.8676 2.96372C13.7558 2.9797 13.6532 2.99322 13.5602 3.00418C13.4731 3.01503 13.386 3.02344 13.3125 3.02344C13.1665 3.02344 13.0103 2.99776 12.8623 2.92378L12.8393 2.91224L12.8175 2.89839C12.55 2.72817 12.5 2.44418 12.5 2.26562V1.39062C12.5 1.13462 12.6133 0.921713 12.7775 0.765495C12.9919 0.555245 13.274 0.5 13.5156 0.5H23.2109C23.4526 0.5 23.7347 0.555248 23.9491 0.765508C24.1132 0.921725 24.2266 1.13463 24.2266 1.39062V2.26562C24.2266 2.46136 24.1631 2.74609 23.8847 2.90845L23.8785 2.91207L23.8722 2.91551C23.72 2.99857 23.5577 3.02344 23.4141 3.02344C23.3363 3.02344 23.2473 3.01527 23.1567 3.00395C23.0698 2.99308 22.9704 2.97964 22.859 2.96372L22.8475 2.96209L22.8361 2.95992C22.731 2.9399 22.6176 2.91973 22.4959 2.89945L22.4925 2.89887L22.4925 2.89886C22.3676 2.87714 22.2404 2.85279 22.1109 2.82584M13.8791 2.96209L22.2109 2.33594M13.8791 2.96209L13.8904 2.95992C13.9964 2.93973 14.1078 2.91947 14.2246 2.89915M13.8791 2.96209L14.2246 2.89915M22.1109 2.82584C22.1103 2.8257 22.1096 2.82556 22.109 2.82543L22.2109 2.33594M22.1109 2.82584C22.1116 2.82597 22.1122 2.8261 22.1129 2.82623L22.2109 2.33594M22.1109 2.82584C22.0021 2.80406 21.8896 2.78118 21.7734 2.75721M22.2109 2.33594C22.0713 2.30801 21.9255 2.27822 21.7734 2.24658V2.75721M21.7734 2.75721C21.6136 2.72422 21.447 2.68916 21.2734 2.65202V2.14062L21.2266 11.6172C21.1953 11.7474 21.1354 11.8594 21.0469 11.9531M21.7734 2.75721V11.1484C21.7734 11.3536 21.7555 11.5489 21.7138 11.7296L21.7128 11.7339L21.7128 11.7339C21.662 11.9454 21.5615 12.1362 21.411 12.2958M21.411 12.2958L21.0469 11.9531M21.411 12.2958C21.4108 12.296 21.4106 12.2962 21.4104 12.2964L21.0469 11.9531M21.411 12.2958C21.2533 12.4633 21.0528 12.5688 20.8435 12.6338L20.8359 12.6361L20.8283 12.6382C20.6182 12.6962 20.3766 12.7188 20.1172 12.7188H16.6328C16.3611 12.7188 16.1075 12.6933 15.8876 12.6274L15.883 12.626L15.8831 12.626C15.6744 12.5612 15.4774 12.4579 15.3183 12.2989L15.313 12.2935L15.3078 12.288C15.1555 12.1262 15.0611 11.931 15.0128 11.7218C14.9709 11.5402 14.9531 11.3419 14.9531 11.1328V2.75721M21.0469 11.9531C20.9635 12.0417 20.8464 12.1094 20.6953 12.1562C20.5443 12.1979 20.3516 12.2188 20.1172 12.2188H16.6328C16.388 12.2188 16.1875 12.1953 16.0312 12.1484C15.8802 12.1016 15.7604 12.0339 15.6719 11.9453C15.5885 11.8568 15.5312 11.7448 15.5 11.6094C15.4688 11.474 15.4531 11.3151 15.4531 11.1328V2.65202C15.2796 2.68916 15.1129 2.72422 14.9531 2.75721M14.9531 2.75721C14.837 2.78118 14.7245 2.80406 14.6156 2.82584M14.9531 2.75721V2.24658C14.8011 2.27822 14.6553 2.30801 14.5156 2.33594C14.3906 2.36198 14.2656 2.38542 14.1406 2.40625C14.0208 2.42708 13.9062 2.44792 13.7969 2.46875L14.6156 2.82584M14.6156 2.82584C14.4854 2.85295 14.355 2.87739 14.2246 2.89915M14.6156 2.82584L14.2246 2.89915" stroke="#2AB7D6"/>
<path d="M28.8591 13.2738L28.8602 13.2739C29.3094 13.3516 29.7571 13.3906 30.2031 13.3906C30.6491 13.3906 31.0969 13.3516 31.5461 13.2739C32.0103 13.1937 32.4555 13.0559 32.8806 12.8606C33.3117 12.6625 33.7113 12.4014 34.0793 12.0794L34.0793 12.0794L34.0825 12.0765C34.4622 11.7384 34.7849 11.3258 35.0535 10.8457L35.0548 10.8435C35.3262 10.3525 35.5335 9.78397 35.6823 9.1446C35.8336 8.49471 35.9062 7.7574 35.9062 6.9375C35.9062 6.1176 35.8336 5.38029 35.6823 4.7304C35.5335 4.09133 35.3263 3.52482 35.0541 3.0382C34.7854 2.55236 34.4616 2.13799 34.0793 1.8034C33.7109 1.4811 33.3104 1.22198 32.8781 1.02888C32.4537 0.834153 32.0093 0.696746 31.5461 0.61668C31.0969 0.539036 30.6491 0.5 30.2031 0.5C29.7571 0.5 29.3094 0.539036 28.8602 0.616679L28.8591 0.61686C28.4009 0.697043 27.9596 0.834515 27.536 1.02887C27.1037 1.22197 26.7032 1.48109 26.3348 1.8034C25.9532 2.13729 25.6274 2.55068 25.3537 3.03539L25.3537 3.03539L25.3527 3.03711C25.0803 3.52397 24.8728 4.09085 24.724 4.7304C24.5727 5.38029 24.5 6.1176 24.5 6.9375C24.5 7.76233 24.5726 8.50231 24.724 9.15241L24.7242 9.15335C24.8731 9.78765 25.0804 10.3532 25.3515 10.8435L25.3515 10.8435L25.3549 10.8496C25.6284 11.3281 25.9529 11.7393 26.3315 12.0765L26.3348 12.0794C26.7027 12.4014 27.1024 12.6625 27.5334 12.8606C27.9578 13.0556 28.4 13.1934 28.8591 13.2738ZM33.3384 9.36529L33.3383 9.36526L33.3347 9.37149C33.2107 9.5822 33.0895 9.69736 32.9849 9.75756C32.8503 9.82916 32.7244 9.85938 32.6016 9.85938C32.4795 9.85938 32.3544 9.82955 32.2209 9.75895C32.118 9.69762 31.995 9.57961 31.8648 9.36529C31.7411 9.16187 31.6269 8.86738 31.5352 8.46277C31.4517 8.07177 31.4062 7.56622 31.4062 6.9375C31.4062 6.30878 31.4517 5.80323 31.5352 5.41223C31.6269 5.00762 31.7411 4.71313 31.8648 4.50971C31.9972 4.29187 32.12 4.17948 32.2184 4.12512L32.2184 4.12514L32.2222 4.12299C32.3575 4.04669 32.4819 4.01562 32.6016 4.01562C32.7212 4.01562 32.8457 4.04669 32.9809 4.12299L32.9809 4.12307L32.9895 4.12774C33.0894 4.18154 33.2097 4.29101 33.3347 4.50351L33.3346 4.50354L33.3384 4.50971C33.461 4.71149 33.5728 5.00474 33.6595 5.40945L33.6595 5.40946L33.6608 5.415C33.7488 5.80408 33.7969 6.30851 33.7969 6.9375C33.7969 7.56649 33.7488 8.07092 33.6608 8.46L33.6607 8.46L33.6595 8.46555C33.5728 8.87026 33.461 9.16351 33.3384 9.36529Z" stroke="#2AB7D6"/>
</svg>
